<svg width="17" height="17" viewBox="0 0 17 17" fill="none" xmlns="http://www.w3.org/2000/svg">
<g id="Frame" clip-path="url(#clip0_172_45)">
<g id="Group">
<path id="Vector" d="M8.50001 1.83937C10.6708 1.83937 10.9256 1.84905 11.7836 1.88775C12.577 1.92323 13.006 2.05548 13.2931 2.16837C13.6737 2.31674 13.9446 2.49092 14.2285 2.77476C14.5123 3.0586 14.6897 3.32955 14.8349 3.71015C14.9445 3.99722 15.08 4.42621 15.1155 5.21968C15.1542 6.07766 15.1639 6.33247 15.1639 8.50323C15.1639 10.674 15.1542 10.9288 15.1155 11.7868C15.08 12.5802 14.9478 13.0092 14.8349 13.2963C14.6865 13.6769 14.5123 13.9478 14.2285 14.2317C13.9446 14.5155 13.6737 14.6929 13.2931 14.8381C13.006 14.9477 12.577 15.0832 11.7836 15.1187C10.9256 15.1574 10.6708 15.1671 8.50001 15.1671C6.32925 15.1671 6.07444 15.1574 5.21646 15.1187C4.42299 15.0832 3.994 14.951 3.70693 14.8381C3.32632 14.6897 3.05538 14.5155 2.77154 14.2317C2.4877 13.9478 2.31029 13.6769 2.16515 13.2963C2.05548 13.0092 1.92001 12.5802 1.88453 11.7868C1.84582 10.9288 1.83615 10.674 1.83615 8.50323C1.83615 6.33247 1.84582 6.07766 1.88453 5.21968C1.92001 4.42621 2.05225 3.99722 2.16515 3.71015C2.31352 3.32955 2.4877 3.0586 2.77154 2.77476C3.05538 2.49092 3.32632 2.31352 3.70693 2.16837C3.994 2.0587 4.42299 1.92323 5.21646 1.88775C6.07444 1.84582 6.33248 1.83937 8.50001 1.83937ZM8.50001 0.375C6.29377 0.375 6.01638 0.384676 5.14872 0.423382C4.28429 0.462088 3.69403 0.600784 3.17795 0.800764C2.64252 1.0072 2.19095 1.28781 1.73938 1.73938C1.28781 2.19095 1.01042 2.64574 0.800765 3.17795C0.600784 3.69403 0.462088 4.28429 0.423382 5.15195C0.384676 6.01638 0.375 6.29377 0.375 8.5C0.375 10.7062 0.384676 10.9836 0.423382 11.8513C0.462088 12.7157 0.600784 13.306 0.800765 13.8253C1.0072 14.3607 1.28781 14.8123 1.73938 15.2638C2.19095 15.7154 2.64574 15.9928 3.17795 16.2025C3.69403 16.4024 4.28429 16.5411 5.15195 16.5798C6.01961 16.6185 6.29377 16.6282 8.50323 16.6282C10.7127 16.6282 10.9869 16.6185 11.8545 16.5798C12.7189 16.5411 13.3092 16.4024 13.8285 16.2025C14.3639 15.996 14.8155 15.7154 15.2671 15.2638C15.7187 14.8123 15.996 14.3575 16.2057 13.8253C16.4057 13.3092 16.5444 12.7189 16.5831 11.8513C16.6218 10.9836 16.6315 10.7095 16.6315 8.5C16.6315 6.29054 16.6218 6.01638 16.5831 5.14872C16.5444 4.28429 16.4057 3.69403 16.2057 3.17472C15.9993 2.63929 15.7187 2.18772 15.2671 1.73616C14.8155 1.28459 14.3607 1.0072 13.8285 0.797539C13.3124 0.597559 12.7222 0.458863 11.8545 0.420157C10.9836 0.384676 10.7062 0.375 8.50001 0.375Z" fill="#ACACAC"/>
<path id="Vector_2" d="M8.49995 4.32941C6.19695 4.32941 4.32617 6.19696 4.32617 8.50319C4.32617 10.8094 6.19373 12.677 8.49995 12.677C10.8062 12.677 12.6737 10.8094 12.6737 8.50319C12.6737 6.19696 10.8062 4.32941 8.49995 4.32941ZM8.49995 11.2094C7.00332 11.2094 5.79054 9.99659 5.79054 8.49996C5.79054 7.00333 7.00332 5.79055 8.49995 5.79055C9.99658 5.79055 11.2094 7.00333 11.2094 8.49996C11.2094 9.99659 9.99658 11.2094 8.49995 11.2094Z" fill="#ACACAC"/>
<path id="Vector_3" d="M12.8384 5.13582C13.3763 5.13582 13.8125 4.6997 13.8125 4.16172C13.8125 3.62374 13.3763 3.18762 12.8384 3.18762C12.3004 3.18762 11.8643 3.62374 11.8643 4.16172C11.8643 4.6997 12.3004 5.13582 12.8384 5.13582Z" fill="#ACACAC"/>
</g>
</g>
<defs>
<clipPath id="clip0_172_45">
<rect width="16.25" height="16.25" fill="white" transform="translate(0.375 0.375)"/>
</clipPath>
</defs>
</svg>
