<svg width="25" height="25" viewBox="0 0 25 25" fill="none" xmlns="http://www.w3.org/2000/svg">
<rect x="13.542" y="7.29175" width="4.16667" height="4.16667" rx="2.08333" stroke="#ACACAC" stroke-width="1.5"/>
<path d="M4.91468 17.9181L6.72602 16.1067C8.41874 14.414 11.1632 14.414 12.8559 16.1067L14.6672 17.9181M14.6672 17.9181L15.4009 17.1844C16.7526 15.8327 18.9732 15.9334 20.197 17.4019L20.6271 17.9181M14.6672 17.9181L17.3763 20.6271M3.49258 15.6766C3.00247 13.5872 3.00247 11.4128 3.49258 9.32336C4.17122 6.43021 6.43022 4.17122 9.32337 3.49258C11.4128 3.00247 13.5872 3.00247 15.6766 3.49258C18.5698 4.17122 20.8288 6.43022 21.5074 9.32337C21.9975 11.4128 21.9975 13.5872 21.5074 15.6766C20.8288 18.5698 18.5698 20.8288 15.6766 21.5074C13.5872 21.9975 11.4128 21.9975 9.32337 21.5074C6.43022 20.8288 4.17122 18.5698 3.49258 15.6766Z" stroke="#ACACAC" stroke-width="1.5" stroke-linecap="round" stroke-linejoin="round"/>
</svg>
