<svg width="25" height="25" viewBox="0 0 25 25" fill="none" xmlns="http://www.w3.org/2000/svg">
<path d="M3.99267 15.8838L4.72371 15.7163L3.99267 15.8838ZM3.99267 9.74295L4.72371 9.9105L3.99267 9.74295ZM21.0067 9.74295L20.2756 9.91051L21.0067 9.74295ZM21.0067 15.8838L20.2756 15.7163L21.0067 15.8838ZM15.4998 21.5197L15.6749 22.249L15.4998 21.5197ZM9.49952 21.5197L9.6746 20.7904L9.49952 21.5197ZM9.49952 4.10708L9.6746 4.83636L9.49952 4.10708ZM15.4998 4.10708L15.6749 3.3778L15.4998 4.10708ZM9.15601 3.125C9.15601 2.71079 8.82022 2.375 8.40601 2.375C7.99179 2.375 7.65601 2.71079 7.65601 3.125H9.15601ZM7.65601 5.74348C7.65601 6.1577 7.99179 6.49348 8.40601 6.49348C8.82022 6.49348 9.15601 6.1577 9.15601 5.74348H7.65601ZM17.3433 3.125C17.3433 2.71079 17.0076 2.375 16.5933 2.375C16.1791 2.375 15.8433 2.71079 15.8433 3.125H17.3433ZM15.8433 5.74348C15.8433 6.1577 16.1791 6.49348 16.5933 6.49348C17.0076 6.49348 17.3433 6.1577 17.3433 5.74348H15.8433ZM4.72371 15.7163C4.28611 13.807 4.28611 11.8198 4.72371 9.9105L3.26162 9.57539C2.77347 11.7052 2.77347 13.9216 3.26162 16.0514L4.72371 15.7163ZM20.2756 9.91051C20.7132 11.8198 20.7132 13.807 20.2756 15.7163L21.7377 16.0514C22.2259 13.9216 22.2259 11.7052 21.7377 9.5754L20.2756 9.91051ZM15.3248 20.7904C13.4665 21.2365 11.5328 21.2365 9.6746 20.7904L9.32445 22.249C11.4128 22.7503 13.5865 22.7503 15.6749 22.249L15.3248 20.7904ZM9.6746 4.83636C11.5328 4.39026 13.4665 4.39026 15.3248 4.83636L15.6749 3.3778C13.5865 2.87645 11.4128 2.87645 9.32445 3.3778L9.6746 4.83636ZM9.6746 20.7904C7.22644 20.2027 5.30272 18.2425 4.72371 15.7163L3.26162 16.0514C3.96449 19.118 6.30776 21.5248 9.32445 22.249L9.6746 20.7904ZM15.6749 22.249C18.6916 21.5248 21.0349 19.118 21.7377 16.0514L20.2756 15.7163C19.6966 18.2425 17.7729 20.2027 15.3248 20.7904L15.6749 22.249ZM15.3248 4.83636C17.7729 5.42407 19.6966 7.38428 20.2756 9.91051L21.7377 9.5754C21.0349 6.50875 18.6916 4.10199 15.6749 3.3778L15.3248 4.83636ZM9.32445 3.3778C6.30776 4.10199 3.96449 6.50875 3.26162 9.57539L4.72371 9.9105C5.30272 7.38427 7.22644 5.42407 9.6746 4.83636L9.32445 3.3778ZM4.31234 9.37382H20.687V7.87382H4.31234V9.37382ZM7.65601 3.125V5.74348H9.15601V3.125H7.65601ZM15.8433 3.125V5.74348H17.3433V3.125H15.8433Z" fill="#ACACAC"/>
<path d="M14.002 14.5042C14.4238 14.2042 14.6863 13.7542 14.6863 13.1448C14.6863 11.8792 13.7113 11.2229 12.5582 11.2229C11.4051 11.2229 10.4207 11.8792 10.4207 13.1448C10.4207 13.7542 10.6926 14.2042 11.1051 14.5042C10.5332 14.851 10.2051 15.4229 10.2051 16.0885C10.2051 17.2979 11.0957 18.0479 12.5582 18.0479C14.0113 18.0479 14.9113 17.2979 14.9113 16.0885C14.9113 15.4229 14.5832 14.851 14.002 14.5042ZM12.5582 12.4417C13.0457 12.4417 13.402 12.7229 13.402 13.2104C13.402 13.6885 13.0457 13.9885 12.5582 13.9885C12.0707 13.9885 11.7145 13.6885 11.7145 13.2104C11.7145 12.7229 12.0707 12.4417 12.5582 12.4417ZM12.5582 16.8292C11.9395 16.8292 11.4895 16.5104 11.4895 15.9198C11.4895 15.3385 11.9395 15.0198 12.5582 15.0198C13.177 15.0198 13.627 15.3385 13.627 15.9198C13.627 16.5104 13.177 16.8292 12.5582 16.8292Z" fill="#ACACAC"/>
</svg>
