<svg width="13" height="5" viewBox="0 0 13 5" fill="none" xmlns="http://www.w3.org/2000/svg">
<path d="M0.38 4.745V0.52H1.18V0.535L1.185 0.53L2.29 2.305C2.485 2.615 2.75 3.05 2.88 3.28C2.845 2.95 2.81 2.38 2.81 2.07V0.52H3.68V4.745H2.88L1.785 3.005C1.58 2.68 1.31 2.225 1.18 1.98C1.21 2.27 1.25 2.855 1.25 3.13V4.745H0.38ZM4.42785 4.745V0.52H7.13785V1.28H5.31785V2.2H6.92785V2.96H5.31785V3.975H7.22785V4.745H4.42785ZM8.33105 4.745L8.33605 4.735L7.53605 0.52H8.43605L8.78105 2.49C8.83105 2.77 8.89605 3.3 8.92605 3.68L9.47105 0.92H10.4061L10.9511 3.68C10.9811 3.3 11.0361 2.77 11.0811 2.49L11.3911 0.52H12.2911L11.5411 4.735L11.5461 4.745H10.5061L10.1161 3.065C10.0461 2.76 9.97105 2.155 9.94605 1.805H9.93105C9.90605 2.155 9.83105 2.76 9.76105 3.065L9.37105 4.745H8.33105Z" fill="#2196F3"/>
</svg>
