<svg width="25" height="25" viewBox="0 0 25 25" fill="none" xmlns="http://www.w3.org/2000/svg">
<path d="M8.85449 16.3969C8.85449 15.3725 9.59264 14.4999 10.5958 14.3384C11.8575 14.1354 13.1431 14.1354 14.4048 14.3384C15.408 14.4999 16.1462 15.3725 16.1462 16.3969V16.6237C16.1462 17.2228 15.6645 17.7084 15.0704 17.7084H9.93021C9.33611 17.7084 8.85449 17.2228 8.85449 16.6237V16.3969Z" stroke="#ACACAC" stroke-width="1.5"/>
<path d="M14.6271 9.43636C14.6271 10.6208 13.6749 11.581 12.5003 11.581C11.3258 11.581 10.3736 10.6208 10.3736 9.43636C10.3736 8.25192 11.3258 7.29175 12.5003 7.29175C13.6749 7.29175 14.6271 8.25192 14.6271 9.43636Z" stroke="#ACACAC" stroke-width="1.5"/>
<path d="M21.875 7.29167C21.875 4.99048 19.5431 3.125 16.6667 3.125M3.125 16.6667C3.125 19.5431 4.99048 21.875 7.29167 21.875M7.29167 3.125C4.99048 3.125 3.125 4.99048 3.125 7.29167M16.6667 21.875C19.5431 21.875 21.875 19.5431 21.875 16.6667" stroke="#ACACAC" stroke-width="1.5" stroke-linecap="round"/>
</svg>
