<svg width="17" height="16" viewBox="0 0 17 16" fill="none" xmlns="http://www.w3.org/2000/svg">
<path d="M2.28442 9.18737L3.01331 9.01067L2.28442 9.18737ZM2.28442 5.54933L3.01331 5.72603L2.28442 5.54933ZM12.9453 5.54934L13.6742 5.37264L12.9453 5.54934ZM12.9453 9.18737L13.6742 9.36406L12.9453 9.18737ZM9.49473 12.5262L9.32872 11.7948L9.49473 12.5262ZM5.73498 12.5262L5.56897 13.2576L5.73498 12.5262ZM5.73498 2.21049L5.56897 1.47909L5.73498 2.21049ZM9.49473 2.21048L9.66074 1.47909L9.49473 2.21048ZM13.9468 14.539C14.2445 14.827 14.7193 14.8192 15.0074 14.5215C15.2954 14.2239 15.2876 13.7491 14.9899 13.461L13.9468 14.539ZM3.01331 9.01067C2.75142 7.93035 2.75142 6.80635 3.01331 5.72603L1.55553 5.37264C1.23735 6.68519 1.23735 8.05151 1.55553 9.36406L3.01331 9.01067ZM12.2164 5.72603C12.4783 6.80635 12.4783 7.93035 12.2164 9.01067L13.6742 9.36406C13.9924 8.05151 13.9924 6.68519 13.6742 5.37264L12.2164 5.72603ZM9.32872 11.7948C8.20154 12.0507 7.02818 12.0507 5.90099 11.7948L5.56897 13.2576C6.91472 13.5631 8.31499 13.5631 9.66074 13.2576L9.32872 11.7948ZM5.90099 2.94188C7.02818 2.68604 8.20154 2.68604 9.32872 2.94188L9.66074 1.47909C8.31499 1.17364 6.91472 1.17364 5.56897 1.47909L5.90099 2.94188ZM5.90099 11.7948C4.45604 11.4669 3.34531 10.3802 3.01331 9.01067L1.55553 9.36406C2.02675 11.3079 3.58969 12.8084 5.56897 13.2576L5.90099 11.7948ZM9.66074 13.2576C11.64 12.8084 13.203 11.3079 13.6742 9.36406L12.2164 9.01067C11.8844 10.3802 10.7737 11.4669 9.32872 11.7948L9.66074 13.2576ZM9.32872 2.94188C10.7737 3.26985 11.8844 4.35648 12.2164 5.72603L13.6742 5.37264C13.203 3.42881 11.64 1.92833 9.66074 1.47909L9.32872 2.94188ZM5.56897 1.47909C3.58969 1.92833 2.02675 3.42881 1.55553 5.37264L3.01331 5.72603C3.34531 4.35648 4.45604 3.26985 5.90099 2.94188L5.56897 1.47909ZM11.4219 12.0957L13.9468 14.539L14.9899 13.461L12.4649 11.0178L11.4219 12.0957Z" fill="white"/>
</svg>
