<svg width="10" height="12" viewBox="0 0 10 12" fill="none" xmlns="http://www.w3.org/2000/svg">
<path d="M1 9.95082C1 8.61021 1.95258 7.46831 3.24717 7.25703L3.36378 7.238C4.40041 7.06882 5.45673 7.06882 6.49337 7.238L6.60998 7.25703C7.90456 7.46831 8.85714 8.61021 8.85714 9.95082C8.85714 10.5303 8.39779 11 7.83115 11H2.02599C1.45935 11 1 10.5303 1 9.95082Z" stroke="#D9D9D9" stroke-width="1.5"/>
<path d="M7.22025 3.1875C7.22025 4.39562 6.19424 5.375 4.92858 5.375C3.66293 5.375 2.63692 4.39562 2.63692 3.1875C2.63692 1.97938 3.66293 1 4.92858 1C6.19424 1 7.22025 1.97938 7.22025 3.1875Z" stroke="#D9D9D9" stroke-width="1.5"/>
</svg>
