<svg width="25" height="23" viewBox="0 0 25 23" fill="none" xmlns="http://www.w3.org/2000/svg">
<path id="Subtract" opacity="0.75" fill-rule="evenodd" clip-rule="evenodd" d="M20.7517 0H4.24028C1.90331 0 0 1.91134 0 4.24028V14.5037C0 16.8407 1.91134 18.744 4.24028 18.744H10.0707L11.0745 20.4786L12.0623 22.1892C12.239 22.5024 12.6887 22.5024 12.8734 22.1892L13.8612 20.4786L14.8651 18.744H20.7597C23.0967 18.744 25 16.8326 25 14.5037V4.24831C25 1.91134 23.0887 0 20.7517 0ZM13.6527 7.51685C12.3758 7.51685 11.3398 8.53676 11.3398 9.7976C11.3398 11.0584 12.3758 12.0784 13.6527 12.0784C14.9296 12.0784 15.9656 11.0584 15.9656 9.7976C15.9656 8.53676 14.9377 7.51685 13.6527 7.51685ZM13.6527 10.8898C13.0424 10.8898 12.5445 10.3999 12.5445 9.7976C12.5445 9.19529 13.0424 8.70541 13.6527 8.70541C14.2631 8.70541 14.761 9.19529 14.761 9.7976C14.761 10.3999 14.2711 10.8898 13.6527 10.8898ZM5.0115 8.03886C5.37288 7.7096 5.83867 7.51686 6.33658 7.51686C7.49303 7.51686 8.41657 8.54481 8.41657 9.80565C8.41657 11.0665 7.48499 12.0864 6.33658 12.0864C5.83064 12.0864 5.37288 11.8856 5.0115 11.5644V11.974H3.72656V6.15161H5.0115V8.03886ZM5.01953 10.2473C5.19621 10.6569 5.60578 10.938 6.0796 10.938C6.72207 10.938 7.23604 10.4321 7.23604 9.79762C7.23604 9.16318 6.72207 8.65724 6.0796 8.65724C5.60578 8.65724 5.19621 8.93832 5.01953 9.34789C4.95528 9.48442 4.92316 9.637 4.92316 9.79762C4.92316 9.95824 4.96331 10.1108 5.01953 10.2473ZM19.9731 7.61318V7.97457C19.6117 7.69349 19.162 7.52484 18.6801 7.52484C17.4996 7.52484 16.5439 8.51263 16.5439 9.72529C16.5439 10.9379 17.4996 11.9257 18.6801 11.9257C19.17 11.9257 19.6198 11.7571 19.9731 11.476V12.0864C19.9731 12.0864 19.8446 12.6887 18.9452 12.6887V13.821C18.9452 13.821 19.9169 13.9334 20.7842 13.0661C20.7842 13.0661 21.1858 12.6405 21.2741 12.0783V7.61318H19.9731ZM18.9211 10.8416C18.2706 10.8416 17.7486 10.3356 17.7486 9.71726C17.7486 9.09889 18.2786 8.59294 18.9211 8.59294C19.3788 8.59294 19.7804 8.84993 19.9731 9.21935C20.0534 9.37193 20.0936 9.54058 20.0936 9.71726C20.0936 9.89394 20.0454 10.0706 19.9731 10.2152C19.7804 10.5926 19.3788 10.8416 18.9211 10.8416ZM8.56112 7.20362V6.03915C8.56112 6.03915 9.41238 5.92672 10.1673 6.81814C10.1673 6.81814 10.5126 7.2518 10.5929 7.83002V7.86214V11.9739H9.26783V7.86214C9.1554 7.28393 8.56112 7.20362 8.56112 7.20362Z" fill="white"/>
</svg>
