<svg width="28" height="28" viewBox="0 0 28 28" fill="none" xmlns="http://www.w3.org/2000/svg">
<path d="M2.33301 19.8576L2.33301 15.2152L2.36144 14.7909C2.72739 9.33161 6.61697 4.79729 11.8599 3.71805C13.2723 3.42732 14.7271 3.42732 16.1395 3.71805C21.3824 4.79729 25.272 9.33161 25.6379 14.7909L25.6663 15.2152V19.8576M18.1875 20.768C17.9901 19.7287 17.9901 18.6601 18.1875 17.6208C18.5049 15.9502 19.7141 14.6046 21.3144 14.1411L21.6539 14.0428C22.0067 13.9406 22.3717 13.8888 22.7384 13.8888C24.3554 13.8888 25.6663 15.2301 25.6663 16.8848V21.504C25.6663 23.1587 24.3554 24.5 22.7384 24.5C22.3717 24.5 22.0067 24.4482 21.6539 24.346L21.3144 24.2477C19.7141 23.7842 18.5049 22.4386 18.1875 20.768ZM9.81182 20.768C10.0093 19.7287 10.0093 18.6601 9.81182 17.6208C9.49444 15.9502 8.28525 14.6046 6.68491 14.1411L6.34546 14.0428C5.99262 13.9406 5.62767 13.8888 5.26097 13.8888C3.6439 13.8888 2.33301 15.2301 2.33301 16.8848L2.33301 21.504C2.333 23.1587 3.6439 24.5 5.26097 24.5C5.62767 24.5 5.99262 24.4482 6.34546 24.346L6.68491 24.2477C8.28524 23.7842 9.49444 22.4386 9.81182 20.768Z" stroke="#ACACAC" stroke-width="1.5"/>
</svg>
