<svg width="16" height="12" viewBox="0 0 16 12" fill="none" xmlns="http://www.w3.org/2000/svg">
<g id="Group 547">
<path id="Vector" d="M14.9886 2.24776C14.8116 1.58404 14.2917 1.06413 13.6391 0.887142C12.4444 0.566345 7.67669 0.566345 7.67669 0.566345C7.67669 0.566345 2.89793 0.566345 1.7143 0.887142C1.06164 1.06413 0.541733 1.58404 0.364742 2.24776C0.0439455 3.44245 0.0439453 5.94245 0.0439453 5.94245C0.0439453 5.94245 0.0439455 8.44245 0.364742 9.63715C0.541733 10.3009 1.06164 10.8208 1.7143 10.9978C2.90899 11.3186 7.67669 11.3186 7.67669 11.3186C7.67669 11.3186 12.4554 11.3186 13.6391 10.9978C14.2917 10.8208 14.8116 10.3009 14.9886 9.63715C15.3094 8.44245 15.3094 5.94245 15.3094 5.94245C15.3094 5.94245 15.3094 3.44245 14.9886 2.24776ZM6.11695 8.21015V3.67475L10.1103 5.94245L6.11695 8.21015Z" fill="#ACACAC"/>
</g>
</svg>
