<svg width="25" height="25" viewBox="0 0 25 25" fill="none" xmlns="http://www.w3.org/2000/svg">
<g id="naver blog">
<path id="Subtract" fill-rule="evenodd" clip-rule="evenodd" d="M18.4446 5.01282H6.47445C4.78022 5.01282 3.40039 6.39847 3.40039 8.08687V15.5275C3.40039 17.2217 4.78604 18.6015 6.47445 18.6015H10.7013L11.429 19.8591L12.1452 21.0992C12.2732 21.3263 12.5993 21.3263 12.7332 21.0992L13.4493 19.8591L14.1771 18.6015H18.4505C20.1447 18.6015 21.5245 17.2159 21.5245 15.5275V8.0927C21.5245 6.39847 20.1389 5.01282 18.4446 5.01282ZM13.2979 10.4623C12.3722 10.4623 11.6211 11.2017 11.6211 12.1158C11.6211 13.0298 12.3722 13.7692 13.2979 13.7692C14.2236 13.7692 14.9746 13.0298 14.9746 12.1158C14.9746 11.2017 14.2294 10.4623 13.2979 10.4623ZM13.2979 12.9076C12.8554 12.9076 12.4944 12.5524 12.4944 12.1158C12.4944 11.6791 12.8554 11.324 13.2979 11.324C13.7403 11.324 14.1013 11.6791 14.1013 12.1158C14.1013 12.5524 13.7462 12.9076 13.2979 12.9076ZM7.03334 10.8407C7.29533 10.602 7.63301 10.4623 7.99398 10.4623C8.83236 10.4623 9.5019 11.2075 9.5019 12.1216C9.5019 13.0356 8.82654 13.7751 7.99398 13.7751C7.62719 13.7751 7.29533 13.6295 7.03334 13.3966V13.6935H6.10181V9.47253H7.03334V10.8407ZM7.03916 12.4418C7.16725 12.7387 7.46417 12.9425 7.80768 12.9425C8.27344 12.9425 8.64605 12.5757 8.64605 12.1158C8.64605 11.6558 8.27344 11.289 7.80768 11.289C7.46417 11.289 7.16725 11.4928 7.03916 11.7897C6.99258 11.8887 6.9693 11.9993 6.9693 12.1158C6.9693 12.2322 6.99841 12.3428 7.03916 12.4418ZM17.8799 10.5322V10.7942C17.6179 10.5904 17.2918 10.4681 16.9425 10.4681C16.0867 10.4681 15.3939 11.1842 15.3939 12.0634C15.3939 12.9425 16.0867 13.6586 16.9425 13.6586C17.2977 13.6586 17.6237 13.5364 17.8799 13.3326V13.7751C17.8799 13.7751 17.7867 14.2117 17.1347 14.2117V15.0326C17.1347 15.0326 17.8391 15.1141 18.4679 14.4854C18.4679 14.4854 18.759 14.1768 18.8231 13.7692V10.5322H17.8799ZM17.1172 12.8726C16.6456 12.8726 16.2672 12.5058 16.2672 12.0575C16.2672 11.6093 16.6514 11.2425 17.1172 11.2425C17.449 11.2425 17.7401 11.4288 17.8799 11.6966C17.9381 11.8072 17.9672 11.9295 17.9672 12.0575C17.9672 12.1856 17.9323 12.3137 17.8799 12.4185C17.7401 12.6922 17.449 12.8726 17.1172 12.8726ZM9.60672 10.2352V9.39103C9.60672 9.39103 10.2239 9.30952 10.7711 9.95577C10.7711 9.95577 11.0215 10.2702 11.0797 10.6894V10.7126V13.6935H10.1191V10.7126C10.0376 10.2934 9.60672 10.2352 9.60672 10.2352Z" fill="#ACACAC"/>
</g>
</svg>
