<svg width="15" height="15" viewBox="0 0 15 15" fill="none" xmlns="http://www.w3.org/2000/svg">
<path d="M2.90819 10.6442L2.21359 10.9271L2.21359 10.9271L2.90819 10.6442ZM2.69131 7.12978L3.41523 7.32585L2.69131 7.12978ZM12.3087 7.12978L11.5848 7.32584L12.3087 7.12978ZM12.0918 10.6442L12.7864 10.9271V10.9271L12.0918 10.6442ZM8.77278 13.0262L8.65701 12.2852H8.65701L8.77278 13.0262ZM6.2272 13.0262L6.11143 13.7672L6.2272 13.0262ZM5.41012 4.76051L5.26081 4.02553H5.26081L5.41012 4.76051ZM9.58988 4.76051L9.44057 5.4955L9.44057 5.4955L9.58988 4.76051ZM5.75924 12.9531L5.87501 12.2121L5.75924 12.9531ZM2.96624 10.7867L3.66084 10.5038H3.66084L2.96624 10.7867ZM9.24075 12.9531L9.35651 13.6941L9.24075 12.9531ZM12.0337 10.7867L11.3391 10.5038V10.5038L12.0337 10.7867ZM9.76245 4.79557L9.91177 4.06059L9.91177 4.06059L9.76245 4.79557ZM5.23756 4.79557L5.38687 5.53056H5.38687L5.23756 4.79557ZM4.02751 4.65342C4.02751 5.06763 4.36329 5.40342 4.77751 5.40342C5.19172 5.40342 5.52751 5.06763 5.52751 4.65342H4.02751ZM4.77751 4.50587H4.02751H4.77751ZM6.82424 1.96506L6.64243 1.23743L6.64242 1.23743L6.82424 1.96506ZM6.86695 1.95438L7.04876 2.68201L7.04877 2.68201L6.86695 1.95438ZM9.32549 2.5954L8.80622 3.13657L8.80622 3.13657L9.32549 2.5954ZM8.96589 3.28978C9.26477 3.57656 9.73954 3.56675 10.0263 3.26787C10.3131 2.96899 10.3033 2.49422 10.0044 2.20744L8.96589 3.28978ZM8.13464 1.94844L8.30959 1.21913H8.30959L8.13464 1.94844ZM5.38687 5.53056L5.55944 5.4955L5.26081 4.02553L5.08824 4.06058L5.38687 5.53056ZM9.44057 5.4955L9.61314 5.53056L9.91177 4.06059L9.7392 4.02553L9.44057 5.4955ZM9.12498 12.2121L8.65701 12.2852L8.88855 13.7672L9.35651 13.6941L9.12498 12.2121ZM6.34297 12.2852L5.87501 12.2121L5.64348 13.6941L6.11143 13.7672L6.34297 12.2852ZM11.3972 10.3613L11.3391 10.5038L12.7283 11.0696L12.7864 10.9271L11.3972 10.3613ZM3.66084 10.5038L3.60279 10.3613L2.21359 10.9271L2.27164 11.0696L3.66084 10.5038ZM3.60279 10.3613C3.20827 9.39261 3.14301 8.33092 3.41523 7.32585L1.96739 6.93371C1.60901 8.25691 1.69555 9.65511 2.21359 10.9271L3.60279 10.3613ZM11.5848 7.32584C11.857 8.33092 11.7917 9.39261 11.3972 10.3613L12.7864 10.9271C13.3045 9.65512 13.391 8.25691 13.0326 6.93371L11.5848 7.32584ZM8.65701 12.2852C7.89075 12.4049 7.10923 12.4049 6.34297 12.2852L6.11143 13.7672C7.03112 13.9109 7.96886 13.9109 8.88855 13.7672L8.65701 12.2852ZM5.55943 5.4955C6.83888 5.23558 8.16113 5.23558 9.44057 5.4955L9.7392 4.02553C8.26268 3.72557 6.73733 3.72557 5.26081 4.02553L5.55943 5.4955ZM5.87501 12.2121C4.85907 12.0534 4.02379 11.395 3.66084 10.5038L2.27164 11.0696C2.84147 12.4687 4.13006 13.4577 5.64348 13.6941L5.87501 12.2121ZM9.35651 13.6941C10.8699 13.4577 12.1585 12.4687 12.7283 11.0696L11.3391 10.5038C10.9762 11.395 10.1409 12.0534 9.12498 12.2121L9.35651 13.6941ZM9.61314 5.53056C10.5895 5.72891 11.3433 6.43428 11.5848 7.32584L13.0326 6.93371C12.6359 5.46882 11.4178 4.36654 9.91177 4.06059L9.61314 5.53056ZM5.08824 4.06058C3.58222 4.36654 2.36414 5.46883 1.96739 6.93371L3.41523 7.32585C3.6567 6.43428 4.4105 5.72891 5.38687 5.53056L5.08824 4.06058ZM5.52751 4.65342V4.50587H4.02751V4.65342H5.52751ZM7.00605 2.69268L7.04876 2.68201L6.68514 1.22675L6.64243 1.23743L7.00605 2.69268ZM8.80622 3.13657L8.96589 3.28978L10.0044 2.20744L9.84475 2.05423L8.80622 3.13657ZM7.95969 2.67775C8.28342 2.75541 8.57555 2.91524 8.80622 3.13657L9.84475 2.05423C9.41839 1.64512 8.88728 1.35771 8.30959 1.21913L7.95969 2.67775ZM7.04877 2.68201C7.34707 2.60747 7.66057 2.606 7.95969 2.67775L8.30959 1.21913C7.77587 1.0911 7.21759 1.09371 6.68514 1.22675L7.04877 2.68201ZM5.52751 4.50587C5.52751 3.67386 6.11572 2.91515 7.00605 2.69268L6.64242 1.23743C5.12189 1.61737 4.02751 2.94744 4.02751 4.50587H5.52751Z" fill="#D9D9D9"/>
<path d="M7.5 8.4375L7.5 9.6875" stroke="#D9D9D9" stroke-width="1.5" stroke-linecap="round"/>
</svg>
