<svg width="25" height="25" viewBox="0 0 25 25" fill="none" xmlns="http://www.w3.org/2000/svg">
<path d="M3.45388 14.3553L4.18406 14.184L3.45388 14.3553ZM3.45388 8.67083L4.18406 8.84211L3.45388 8.67083ZM19.5722 8.67084L20.3024 8.49956L19.5722 8.67084ZM19.5722 14.3553L20.3024 14.5265L19.5722 14.3553ZM14.3553 19.5722L14.184 18.842L14.3553 19.5722ZM8.67084 19.5722L8.49956 20.3024L8.67084 19.5722ZM8.67083 3.45388L8.49956 2.7237L8.67083 3.45388ZM14.3553 3.45388L14.5265 2.7237L14.3553 3.45388ZM21.3447 22.4053C21.6376 22.6982 22.1124 22.6982 22.4053 22.4053C22.6982 22.1124 22.6982 21.6376 22.4053 21.3447L21.3447 22.4053ZM4.18406 14.184C3.77198 12.4272 3.77198 10.5989 4.18406 8.84211L2.7237 8.49955C2.25877 10.4816 2.25877 12.5444 2.7237 14.5265L4.18406 14.184ZM18.842 8.84211C19.2541 10.5989 19.2541 12.4272 18.842 14.184L20.3024 14.5265C20.7673 12.5444 20.7673 10.4817 20.3024 8.49956L18.842 8.84211ZM14.184 18.842C12.4272 19.2541 10.5989 19.2541 8.84211 18.842L8.49956 20.3024C10.4817 20.7673 12.5444 20.7673 14.5265 20.3024L14.184 18.842ZM8.84211 4.18406C10.5989 3.77198 12.4272 3.77198 14.184 4.18406L14.5265 2.7237C12.5444 2.25877 10.4817 2.25877 8.49956 2.7237L8.84211 4.18406ZM8.84211 18.842C6.53086 18.2999 4.72621 16.4952 4.18406 14.184L2.7237 14.5265C3.39595 17.3924 5.63367 19.6301 8.49956 20.3024L8.84211 18.842ZM14.5265 20.3024C17.3924 19.6301 19.6301 17.3924 20.3024 14.5265L18.842 14.184C18.2999 16.4952 16.4952 18.2999 14.184 18.842L14.5265 20.3024ZM14.184 4.18406C16.4952 4.72621 18.2999 6.53086 18.842 8.84211L20.3024 8.49956C19.6301 5.63366 17.3924 3.39595 14.5265 2.7237L14.184 4.18406ZM8.49956 2.7237C5.63366 3.39595 3.39595 5.63366 2.7237 8.49955L4.18406 8.84211C4.72621 6.53086 6.53086 4.72621 8.84211 4.18406L8.49956 2.7237ZM17.5271 18.5878L21.3447 22.4053L22.4053 21.3447L18.5878 17.5271L17.5271 18.5878Z" fill="#ACACAC"/>
</svg>
