<svg width="15" height="15" viewBox="0 0 15 15" fill="none" xmlns="http://www.w3.org/2000/svg">
<g id="Mask group">
<mask id="mask0_98_131" style="mask-type:luminance" maskUnits="userSpaceOnUse" x="0" y="0" width="15" height="15">
<g id="Group">
<path id="Vector" d="M0 0H15V15H0V0Z" fill="white"/>
</g>
</mask>
<g mask="url(#mask0_98_131)">
<path id="Fill-10" fill-rule="evenodd" clip-rule="evenodd" d="M10.7594 9.71064H8.61712L7.08016 4.86698H8.7289L9.59505 7.70801H9.78142L10.6476 4.86698H12.2964L10.7594 9.71064ZM6.55022 6.35718C6.55022 6.35726 6.5503 6.35718 6.55022 6.35718L5.2158 6.35734V8.22028H6.55022V9.71064H5.25921H5.01687C4.28337 9.71064 3.58575 9.0255 3.58575 8.27952V7.94156V6.35734H2.73712V4.86698H3.58575V3.37662H5.2158V4.86698H6.55022V6.35718ZM7.34053 0.0837402C3.45477 0.0837402 0.304688 2.99751 0.304688 6.59173C0.304688 9.24631 1.41653 10.5134 2.93924 11.6687L2.94653 11.6719V14.7871C2.94653 14.9341 3.11413 15.0184 3.2322 14.9306L5.90019 12.9487L5.95759 12.9736C6.40483 13.0561 6.86723 13.0996 7.34053 13.0996C11.2264 13.0996 14.3764 10.1859 14.3764 6.59173C14.3764 2.99751 11.2264 0.0837402 7.34053 0.0837402Z" fill="#ACACAC"/>
</g>
</g>
</svg>
