<svg width="25" height="25" viewBox="0 0 25 25" fill="none" xmlns="http://www.w3.org/2000/svg">
<g id="Social Icons" opacity="0.75" clip-path="url(#clip0_98_96)">
<path id="Vector" d="M24.5017 6.44318C24.3603 5.91132 24.0818 5.42591 23.6939 5.03553C23.306 4.64515 22.8224 4.36349 22.2915 4.21874C20.3369 3.69318 12.5244 3.69318 12.5244 3.69318C12.5244 3.69318 4.71191 3.69318 2.75737 4.21874C2.22642 4.36349 1.74281 4.64515 1.35492 5.03553C0.967035 5.42591 0.688482 5.91132 0.547141 6.44318C0.0244141 8.40624 0.0244141 12.5 0.0244141 12.5C0.0244141 12.5 0.0244141 16.5937 0.547141 18.5568C0.688482 19.0887 0.967035 19.5741 1.35492 19.9645C1.74281 20.3548 2.22642 20.6365 2.75737 20.7812C4.71191 21.3068 12.5244 21.3068 12.5244 21.3068C12.5244 21.3068 20.3369 21.3068 22.2915 20.7812C22.8224 20.6365 23.306 20.3548 23.6939 19.9645C24.0818 19.5741 24.3603 19.0887 24.5017 18.5568C25.0244 16.5937 25.0244 12.5 25.0244 12.5C25.0244 12.5 25.0244 8.40624 24.5017 6.44318Z" fill="white"/>
<path id="Vector_2" d="M9.96777 16.2174V8.78271L16.5019 12.5L9.96777 16.2174Z" fill="#333333" fill-opacity="0.85"/>
</g>
<defs>
<clipPath id="clip0_98_96">
<rect width="25" height="25" fill="white"/>
</clipPath>
</defs>
</svg>
