<svg width="25" height="25" viewBox="0 0 25 25" fill="none" xmlns="http://www.w3.org/2000/svg">
<path d="M21.2967 7.17562C19.5607 7.75427 17.2461 5.43964 17.8247 3.70366M17.6843 3.84407L13.9443 7.58409C12.3183 9.21003 11.1649 11.2473 10.6072 13.4781L10.4265 14.2009C10.3701 14.4262 10.5742 14.6302 10.7994 14.5739L11.5223 14.3932C13.753 13.8355 15.7903 12.682 17.4162 11.056L21.1563 7.31602C21.6167 6.85561 21.8753 6.23116 21.8753 5.58004C21.8753 4.22416 20.7762 3.125 19.4203 3.125C18.7692 3.125 18.1447 3.38366 17.6843 3.84407Z" stroke="#ACACAC" stroke-width="1.5"/>
<path d="M12.5 3.125C11.434 3.125 10.3681 3.24753 9.32337 3.49258C6.43022 4.17122 4.17122 6.43022 3.49258 9.32337C3.00247 11.4128 3.00247 13.5872 3.49258 15.6766C4.17122 18.5698 6.43022 20.8288 9.32337 21.5074C11.4128 21.9975 13.5872 21.9975 15.6766 21.5074C18.5698 20.8288 20.8288 18.5698 21.5074 15.6766C21.7525 14.6319 21.875 13.5659 21.875 12.5" stroke="#ACACAC" stroke-width="1.5" stroke-linecap="round"/>
</svg>
