<svg width="17" height="17" viewBox="0 0 17 17" fill="none" xmlns="http://www.w3.org/2000/svg">
<g id="Frame" clip-path="url(#clip0_172_89)">
<g id="Group">
<path id="Vector" d="M16.625 8.54949C16.625 4.03436 12.9878 0.375 8.5 0.375C4.01221 0.375 0.375 4.03436 0.375 8.54949C0.375 12.6304 3.3457 16.0119 7.23047 16.625V10.9124H5.16748V8.54949H7.23047V6.74855C7.23047 4.70014 8.44287 3.56816 10.2996 3.56816C11.1882 3.56816 12.1182 3.72782 12.1182 3.72782V5.73951H11.093C10.0837 5.73951 9.76953 6.37016 9.76953 7.01678V8.54949H12.0229L11.6627 10.9124H9.76953V16.625C13.6543 16.0119 16.625 12.6304 16.625 8.54949Z" fill="#ACACAC"/>
</g>
</g>
<defs>
<clipPath id="clip0_172_89">
<rect width="16.25" height="16.25" fill="white" transform="translate(0.375 0.375)"/>
</clipPath>
</defs>
</svg>
