<svg width="25" height="25" viewBox="0 0 25 25" fill="none" xmlns="http://www.w3.org/2000/svg">
<path d="M20.8437 10.124C20.8437 9.70978 20.508 9.37399 20.0937 9.37399C19.6795 9.37399 19.3437 9.70978 19.3437 10.124H20.8437ZM5.65624 10.124C5.65624 9.70978 5.32045 9.37399 4.90624 9.37399C4.49203 9.37399 4.15624 9.70978 4.15624 10.124H5.65624ZM15.118 21.5699L14.9455 20.84L15.118 21.5699ZM9.88201 21.5699L10.0544 20.84L9.88201 21.5699ZM15.4463 5.22315L14.9141 5.7516L15.4463 5.22315ZM21.3428 12.2261C21.6346 12.52 22.1095 12.5217 22.4034 12.2298C22.6974 11.938 22.6991 11.4631 22.4072 11.1692L21.3428 12.2261ZM9.55372 5.22315L10.0859 5.7516H10.0859L9.55372 5.22315ZM2.59279 11.1692C2.30094 11.4631 2.30262 11.938 2.59655 12.2298C2.89048 12.5217 3.36535 12.52 3.65721 12.2261L2.59279 11.1692ZM10.1234 19.0836L9.38623 18.9453L9.38623 18.9453L10.1234 19.0836ZM10.1435 18.9763L10.8806 19.1147V19.1147L10.1435 18.9763ZM14.8565 18.9763L14.1194 19.1147V19.1147L14.8565 18.9763ZM14.8766 19.0836L15.6138 18.9453L15.6138 18.9453L14.8766 19.0836ZM14.5748 21.4082L13.8975 21.0859H13.8975L14.5748 21.4082ZM13.7759 21.3415C13.5979 21.7156 13.7568 22.1631 14.1308 22.3411C14.5049 22.5191 14.9524 22.3601 15.1303 21.9861L13.7759 21.3415ZM10.4252 21.4082L9.74801 21.7305L9.74801 21.7305L10.4252 21.4082ZM9.86965 21.9861C10.0476 22.3601 10.4951 22.519 10.8692 22.3411C11.2432 22.1631 11.4021 21.7156 11.2241 21.3415L9.86965 21.9861ZM11.8344 17.1277L11.6339 16.405H11.6339L11.8344 17.1277ZM13.1656 17.1277L13.3661 16.405L13.1656 17.1277ZM19.3437 10.124V15.2473H20.8437V10.124H19.3437ZM5.65624 15.2473V10.124H4.15624V15.2473H5.65624ZM14.9455 20.84C13.337 21.22 11.663 21.22 10.0544 20.84L9.70958 22.2998C11.5449 22.7334 13.4551 22.7334 15.2904 22.2998L14.9455 20.84ZM10.0544 20.84C7.48129 20.2321 5.65624 17.9182 5.65624 15.2473H4.15624C4.15624 18.607 6.45289 21.5305 9.70958 22.2998L10.0544 20.84ZM15.2904 22.2998C18.5471 21.5305 20.8437 18.607 20.8437 15.2473H19.3437C19.3437 17.9182 17.5187 20.2321 14.9455 20.84L15.2904 22.2998ZM14.9141 5.7516L21.3428 12.2261L22.4072 11.1692L15.9785 4.69471L14.9141 5.7516ZM9.02151 4.69471L2.59279 11.1692L3.65721 12.2261L10.0859 5.7516L9.02151 4.69471ZM15.9785 4.69471C15.299 4.0104 14.7373 3.44243 14.2329 3.05483C13.7114 2.65411 13.163 2.375 12.5 2.375V3.875C12.6999 3.875 12.9303 3.94558 13.3189 4.24424C13.7247 4.55603 14.2047 5.03713 14.9141 5.7516L15.9785 4.69471ZM10.0859 5.7516C10.7953 5.03713 11.2753 4.55603 11.6811 4.24424C12.0697 3.94558 12.3001 3.875 12.5 3.875V2.375C11.837 2.375 11.2886 2.65411 10.7671 3.05483C10.2627 3.44243 9.70098 4.0104 9.02151 4.69471L10.0859 5.7516ZM10.8605 19.222L10.8806 19.1147L9.40638 18.838L9.38623 18.9453L10.8605 19.222ZM14.1194 19.1147L14.1395 19.222L15.6138 18.9453L15.5936 18.838L14.1194 19.1147ZM13.8975 21.0859L13.7759 21.3415L15.1303 21.9861L15.252 21.7305L13.8975 21.0859ZM9.74801 21.7305L9.86965 21.9861L11.2241 21.3415L11.1025 21.0859L9.74801 21.7305ZM14.1395 19.222C14.2581 19.8536 14.1732 20.5068 13.8975 21.0859L15.252 21.7305C15.6642 20.8643 15.7908 19.8886 15.6138 18.9453L14.1395 19.222ZM9.38623 18.9453C9.20917 19.8886 9.33579 20.8643 9.74801 21.7305L11.1025 21.0859C10.8268 20.5068 10.7419 19.8536 10.8605 19.222L9.38623 18.9453ZM12.035 17.8504C12.3393 17.7659 12.6606 17.7659 12.965 17.8504L13.3661 16.405C12.7993 16.2477 12.2007 16.2477 11.6339 16.405L12.035 17.8504ZM15.5936 18.838C15.3741 17.6684 14.5117 16.7228 13.3661 16.405L12.965 17.8504C13.5549 18.014 14.0045 18.5029 14.1194 19.1147L15.5936 18.838ZM10.8806 19.1147C10.9955 18.5029 11.4451 18.014 12.035 17.8504L11.6339 16.405C10.4883 16.7228 9.62591 17.6684 9.40638 18.838L10.8806 19.1147Z" fill="white"/>
</svg>
