<svg xmlns="http://www.w3.org/2000/svg" width="315.65" height="16.314" viewBox="0 0 315.65 16.314">
  <g id="그룹_1134" data-name="그룹 1134" transform="translate(-57.333 -550.413)">
    <g id="그룹_1084" data-name="그룹 1084" transform="translate(57.983 551.063)">
      <g id="그룹_1081" data-name="그룹 1081">
        <g id="그룹_1070" data-name="그룹 1070">
          <g id="그룹_1069" data-name="그룹 1069">
            <g id="그룹_1068" data-name="그룹 1068">
              <g id="그룹_1067" data-name="그룹 1067">
                <g id="그룹_1066" data-name="그룹 1066">
                  <g id="그룹_1062" data-name="그룹 1062">
                    <path id="패스_655" data-name="패스 655" d="M61.726,558.571a7.507,7.507,0,0,1,7.507-7.508H65.49a7.507,7.507,0,0,0,0,15.014h3.743A7.507,7.507,0,0,1,61.726,558.571Z" transform="translate(-57.983 -551.063)" fill="none" stroke="#fff" stroke-linejoin="round" stroke-width="1.3"/>
                    <g id="그룹_1061" data-name="그룹 1061" transform="translate(3.743)">
                      <path id="패스_656" data-name="패스 656" d="M62.93,558.571a3.73,3.73,0,0,1,3.73-3.731h4.271l3.269-3.776H70.437A7.507,7.507,0,0,0,62.93,558.571Z" transform="translate(-62.93 -551.063)" fill="none" stroke="#fff" stroke-linejoin="round" stroke-width="1.3"/>
                      <path id="패스_657" data-name="패스 657" d="M62.93,558.571a3.73,3.73,0,0,1,3.73-3.731h4.271l3.269-3.776H70.437A7.507,7.507,0,0,0,62.93,558.571Z" transform="translate(-62.93 -551.063)" fill="none" stroke="#fff" stroke-linejoin="round" stroke-width="1.3"/>
                    </g>
                  </g>
                  <g id="그룹_1065" data-name="그룹 1065" transform="translate(3.743 6.702)">
                    <g id="그룹_1063" data-name="그룹 1063" transform="translate(0 0.805)">
                      <path id="패스_658" data-name="패스 658" d="M72.174,564.74c-.008-.009-.018-.016-.026-.025H66.66a3.73,3.73,0,0,1-3.73-3.73,7.507,7.507,0,0,0,7.507,7.507H74.2a7.509,7.509,0,0,0-2.026-3.752Z" transform="translate(-62.93 -560.985)" fill="none" stroke="#fff" stroke-linejoin="round" stroke-width="1.3"/>
                      <path id="패스_659" data-name="패스 659" d="M72.174,564.74c-.008-.009-.018-.016-.026-.025H66.66a3.73,3.73,0,0,1-3.73-3.73,7.507,7.507,0,0,0,7.507,7.507H74.2a7.509,7.509,0,0,0-2.026-3.752Z" transform="translate(-62.93 -560.985)" fill="none" stroke="#fff" stroke-linejoin="round" stroke-width="1.3"/>
                    </g>
                    <g id="그룹_1064" data-name="그룹 1064" transform="translate(3.549)">
                      <path id="패스_660" data-name="패스 660" d="M69.616,559.921l-2,2.328h.364a7.478,7.478,0,0,1,5.3,2.207c.008.009.018.016.026.025h0a7.509,7.509,0,0,1,2.026,3.752v-3.752h0v-4.551Z" transform="translate(-67.62 -559.921)" fill="none" stroke="#fff" stroke-linejoin="round" stroke-width="1.3"/>
                      <path id="패스_661" data-name="패스 661" d="M69.616,559.921l-2,2.328h.364a7.478,7.478,0,0,1,5.3,2.207c.008.009.018.016.026.025h0a7.509,7.509,0,0,1,2.026,3.752v-3.752h0v-4.551Z" transform="translate(-67.62 -559.921)" fill="none" stroke="#fff" stroke-linejoin="round" stroke-width="1.3"/>
                    </g>
                  </g>
                </g>
              </g>
            </g>
          </g>
        </g>
        <g id="그룹_1080" data-name="그룹 1080">
          <g id="그룹_1079" data-name="그룹 1079">
            <g id="그룹_1078" data-name="그룹 1078">
              <g id="그룹_1077" data-name="그룹 1077">
                <g id="그룹_1076" data-name="그룹 1076">
                  <g id="그룹_1072" data-name="그룹 1072">
                    <path id="패스_662" data-name="패스 662" d="M61.726,558.571a7.507,7.507,0,0,1,7.507-7.508H65.49a7.507,7.507,0,0,0,0,15.014h3.743A7.507,7.507,0,0,1,61.726,558.571Z" transform="translate(-57.983 -551.063)" fill="#0091db"/>
                    <g id="그룹_1071" data-name="그룹 1071" transform="translate(3.743)">
                      <path id="패스_663" data-name="패스 663" d="M62.93,558.571a3.73,3.73,0,0,1,3.73-3.731h4.271l3.269-3.776H70.437A7.507,7.507,0,0,0,62.93,558.571Z" transform="translate(-62.93 -551.063)" fill="#004ea2"/>
                    </g>
                  </g>
                  <g id="그룹_1075" data-name="그룹 1075" transform="translate(3.743 6.702)">
                    <g id="그룹_1073" data-name="그룹 1073" transform="translate(0 0.805)">
                      <path id="패스_664" data-name="패스 664" d="M72.174,564.74c-.008-.009-.018-.016-.026-.025H66.66a3.73,3.73,0,0,1-3.73-3.73,7.507,7.507,0,0,0,7.507,7.507H74.2a7.509,7.509,0,0,0-2.026-3.752Z" transform="translate(-62.93 -560.985)" fill="#004ea2"/>
                    </g>
                    <g id="그룹_1074" data-name="그룹 1074" transform="translate(3.549)">
                      <path id="패스_665" data-name="패스 665" d="M69.616,559.921l-2,2.328h.364a7.478,7.478,0,0,1,5.3,2.207c.008.009.018.016.026.025h0a7.509,7.509,0,0,1,2.026,3.752v-3.752h0v-4.551Z" transform="translate(-67.62 -559.921)" fill="#82bf25"/>
                    </g>
                  </g>
                </g>
              </g>
            </g>
          </g>
        </g>
      </g>
      <g id="그룹_1083" data-name="그룹 1083" transform="translate(19.519 0.751)">
        <path id="패스_666" data-name="패스 666" d="M263.664,552.286V564.7h-8.546V552.286Zm-5.471,10.355h2.4v-8.263h-2.4Zm7.385-10.586h3.129v13.513h-3.129Z" transform="translate(-125.473 -552.055)" fill="#fff"/>
        <path id="패스_667" data-name="패스 667" d="M98.727,565.115H83.779v-2.091H98.727Zm-3.933-7.571V554.53H84.477V552.4H97.922v4.787a19.634,19.634,0,0,1-.465,4.543H94.328A17.524,17.524,0,0,0,94.794,557.544Z" transform="translate(-83.779 -552.138)" fill="#fff"/>
        <path id="패스_668" data-name="패스 668" d="M112.879,560.373H105.62v-5.054h5.614v-1.188H105.62v-1.919h8.671v5.011H108.66v1.245h4.631A6.162,6.162,0,0,0,116.2,558v-5.941h3.129v9.807H116.2v-2.019A6.81,6.81,0,0,1,112.879,560.373Zm6.67,3.162v2.033h-13v-4.5h3.13v2.462Z" transform="translate(-89.094 -552.055)" fill="#fff"/>
        <path id="패스_669" data-name="패스 669" d="M149.686,562.389h-2.867v-2.11H161.8v2.11h-2.85v3.179h-3.064v-3.179h-3.117v3.179h-3.082Zm8.977-5.492h2.6v2.081h-13.9V556.9h2.276v-2.76h-2.007v-2.082h13.367v2.082h-2.025v1.012A4.618,4.618,0,0,1,158.663,556.9Zm-2.8-2.76H152.75v2.76H155.6a4.5,4.5,0,0,0,.269-1.619Z" transform="translate(-99.119 -552.055)" fill="#fff"/>
        <path id="패스_670" data-name="패스 670" d="M213.847,559.223h-2.056v-2.091h2.146a13.513,13.513,0,0,0,3.326-.274,10.751,10.751,0,0,0,.071-1.341v-1.14H211.88v-2.091h8.546v2.942c0,5.6-2.682,8.6-8.636,9.634v-2.221c2.521-.577,4.13-1.759,4.935-3.649A14,14,0,0,1,213.847,559.223Zm8.207-7.168h3.13v5.207h2.306v2.105h-2.306v6.2h-3.13Z" transform="translate(-114.93 -552.055)" fill="#fff"/>
        <path id="패스_671" data-name="패스 671" d="M199.169,552.055H202.3v5.207h2.307v2.105H202.3v6.2h-3.129Zm-5.874.014a4.551,4.551,0,0,0-4.551,4.551v3.734a4.551,4.551,0,0,0,9.1,0V556.62A4.551,4.551,0,0,0,193.3,552.069Zm1.457,9.287a1.457,1.457,0,0,1-2.914,0v-5.739a1.457,1.457,0,1,1,2.914,0Z" transform="translate(-109.322 -552.055)" fill="#fff"/>
        <path id="패스_672" data-name="패스 672" d="M248.553,552.055v13.513h-2.772V552.055Zm-6.241,5.47H239.58v1.726h2.732v1.8a48.547,48.547,0,0,1-4.881,1.2v-7.675h3.488v-2.042h-6.3v12.281l.725,0c.16-.011.32-.017.478-.031a12.391,12.391,0,0,0,6.486-2.154v2.862H244.9V552.21h-2.584Z" transform="translate(-120.486 -552.055)" fill="#fff"/>
        <path id="패스_673" data-name="패스 673" d="M179.21,565.568v-2.545l-.079.046a13.964,13.964,0,0,1-5.988,1.581c-.533.035-1.165.053-1.827.053-.926,0-1.852-.036-2.614-.1V552.226h9.86l-1.933,2.327h-4.846v2.691h4.366l-1.973,2.372h-2.393V562.4l.055,0a37.538,37.538,0,0,0,7.333-1.149l.039-.011v-2.108h-3.776l2.091-2.513,1.685-.011v-4.548h3.08v13.513Z" transform="translate(-104.444 -552.055)" fill="#fff"/>
        <g id="그룹_1082" data-name="그룹 1082" transform="translate(32.032)">
          <path id="패스_674" data-name="패스 674" d="M128.241,556.915h-1.752v-1.9h1.824a20.114,20.114,0,0,0,3.416-.172,3.887,3.887,0,0,0,.071-.678h-5.31v-1.947h8.386v1.413a6.5,6.5,0,0,1-.107,1.211h2.306v-2.784H140.2v7.6h-3.129v-2.726h-3.164c-1.323,1.861-3.988,2.813-7.8,3.029v-1.976a8.574,8.574,0,0,0,4.434-1.183A19.037,19.037,0,0,1,128.241,556.915Z" transform="translate(-126.113 -552.055)" fill="#fff"/>
          <path id="패스_675" data-name="패스 675" d="M127.838,562.84v5.353h8.715l1.063-1.8v1.8h3.005V562.84Zm9.8,3.457h-6.808V564.98h6.808Z" transform="translate(-126.533 -554.679)" fill="#fff"/>
        </g>
      </g>
    </g>
    <rect id="사각형_3" data-name="사각형 3" width="1.501" height="13.513" transform="translate(224.495 551.814)" fill="#fff"/>
    <g id="그룹_1089" data-name="그룹 1089" transform="translate(229.749 551.814)">
      <path id="패스_676" data-name="패스 676" d="M299.938,564.957H284.99v-2.091h14.948ZM296,557.386v-3.014H285.688v-2.135h13.446v4.788a19.628,19.628,0,0,1-.465,4.542h-3.129A17.559,17.559,0,0,0,296,557.386Z" transform="translate(-284.99 -552.1)" fill="#fff"/>
      <path id="패스_677" data-name="패스 677" d="M314.108,560.373h-7.259v-5.054h5.614v-1.188h-5.614v-1.919h8.672v5.011h-5.632v1.245h4.631a6.16,6.16,0,0,0,2.914-.473v-5.941h3.13v9.807h-3.13v-2.019A6.807,6.807,0,0,1,314.108,560.373Zm6.669,3.162v2.033h-13v-4.5h3.13v2.462Z" transform="translate(-290.309 -552.055)" fill="#fff"/>
      <path id="패스_678" data-name="패스 678" d="M351.074,562.389h-2.866v-2.11h14.98v2.11h-2.85v3.179h-3.064v-3.179h-3.117v3.179h-3.083Zm8.977-5.492h2.6v2.081h-13.9V556.9h2.275v-2.76h-2.007v-2.082h13.367v2.082h-2.025v1.012A4.6,4.6,0,0,1,360.051,556.9Zm-2.8-2.76h-3.117v2.76h2.849a4.5,4.5,0,0,0,.269-1.619Z" transform="translate(-300.374 -552.055)" fill="#fff"/>
      <path id="패스_679" data-name="패스 679" d="M400.38,552.055h3.129v5.207h2.306v2.105h-2.306v6.2H400.38Zm-5.874.014a4.551,4.551,0,0,0-4.551,4.551v3.734a4.551,4.551,0,0,0,9.1,0V556.62A4.551,4.551,0,0,0,394.507,552.069Zm1.457,9.287a1.457,1.457,0,0,1-2.915,0v-5.739a1.457,1.457,0,0,1,2.915,0Z" transform="translate(-310.533 -552.055)" fill="#fff"/>
      <path id="패스_680" data-name="패스 680" d="M380.536,565.568v-2.545l-.079.046a13.967,13.967,0,0,1-5.989,1.581c-.533.035-1.164.053-1.827.053-.925,0-1.852-.036-2.613-.1V552.226h9.86l-1.933,2.327h-4.846v2.691h4.366l-1.973,2.372h-2.393V562.4l.055,0a37.538,37.538,0,0,0,7.333-1.149l.039-.011v-2.108H376.76l2.09-2.513,1.686-.011v-4.548h3.08v13.513Z" transform="translate(-305.683 -552.055)" fill="#fff"/>
      <g id="그룹_1085" data-name="그룹 1085" transform="translate(32.045)">
        <path id="패스_681" data-name="패스 681" d="M329.469,556.915h-1.752v-1.9h1.824a20.089,20.089,0,0,0,3.415-.173,3.812,3.812,0,0,0,.072-.678h-5.31v-1.947H336.1v1.413a6.436,6.436,0,0,1-.107,1.211H338.3v-2.784h3.129v7.6H338.3v-2.726h-3.165c-1.323,1.861-3.987,2.813-7.8,3.029v-1.976a8.574,8.574,0,0,0,4.434-1.183A19.038,19.038,0,0,1,329.469,556.915Z" transform="translate(-327.341 -552.055)" fill="#fff"/>
        <path id="패스_682" data-name="패스 682" d="M329.066,562.84v5.353h8.715l1.063-1.8v1.8h3.005V562.84Zm9.8,3.457h-6.808V564.98h6.808Z" transform="translate(-327.761 -554.679)" fill="#fff"/>
      </g>
      <path id="패스_683" data-name="패스 683" d="M426.98,565.121H412.032V563.03H426.98Zm-.807-3.707-.832-2.062h-9.38V557.91h8.611l.756-1.98H415.96v-1.452h9.379l.838-2.077H412.837v9.013Z" transform="translate(-315.905 -552.139)" fill="#fff"/>
      <g id="그룹_1087" data-name="그룹 1087" transform="translate(111.919)">
        <g id="그룹_1086" data-name="그룹 1086">
          <path id="패스_684" data-name="패스 684" d="M442.684,552.937v1.9H432.9v-1.9h3.362v-.882h3.129v.882Zm1.091-.88H446.9v3.2h2.2v2.091h-2.2v3.072h-3.129Z" transform="translate(-432.903 -552.055)" fill="#fff"/>
          <path id="패스_685" data-name="패스 685" d="M447.283,563.883V563.8h-12.82v2.076h9.694a10.723,10.723,0,0,1-.259,2.551h3.129A20.282,20.282,0,0,0,447.283,563.883Z" transform="translate(-433.283 -554.913)" fill="#fff"/>
        </g>
        <path id="패스_686" data-name="패스 686" d="M439.675,556.1h-3.486a2.718,2.718,0,0,0,0,5.437h3.486a2.718,2.718,0,0,0,0-5.437Zm-1.137,3.605h-1.212a.887.887,0,0,1,0-1.774h1.212a.887.887,0,1,1,0,1.774Z" transform="translate(-433.041 -553.039)" fill="#fff"/>
      </g>
      <g id="그룹_1088" data-name="그룹 1088" transform="translate(128.963)">
        <path id="패스_687" data-name="패스 687" d="M470.182,566.875V568.7H457.413v-3.762h3.129v1.932Z" transform="translate(-455.911 -555.191)" fill="#fff"/>
        <path id="패스_688" data-name="패스 688" d="M466.586,562.412v-.721h-3.308v-1.78l3.307-.007v-.917l-.07.023a9.535,9.535,0,0,1-2.895.505h-1.951v1.932h-3.094v-1.92h-3.147v-1.9l8.276.054a9.593,9.593,0,0,0,2.842-.48l.039-.011v-5.141h2.9v10.357Z" transform="translate(-455.428 -552.055)" fill="#fff"/>
        <path id="패스_689" data-name="패스 689" d="M463.15,552.058h-4.317a2.625,2.625,0,1,0,0,5.25h4.317a2.625,2.625,0,0,0,0-5.25Zm-1.071,3.46H459.9a.835.835,0,0,1,0-1.671h2.174a.835.835,0,0,1,0,1.671Z" transform="translate(-455.618 -552.056)" fill="#fff"/>
      </g>
    </g>
  </g>
</svg>
